Coordinates
version=1
nRows=28
nColumns=33
inDegrees=yes

Units are S.I. units (second, meters, Newtons, ...)
Angles are in degrees.

endheader
time	ground_thorax_rot_x	ground_thorax_rot_y	ground_thorax_rot_z	ground_thorax_tx	ground_thorax_ty	ground_thorax_tz	clav_prot_r	clav_elev_r	scapula_abduction_r	scapula_elevation_r	scapula_upward_rot_r	scapula_winging_r	shoulder_elv_r	plane_of_elev_r	axial_rot_r	elbow_flexion_r	pro_sup_r	wrist_flex_r	wrist_dev_r	clav_prot_l	clav_elev_l	scapula_abduction_l	scapula_elevation_l	scapula_upward_rot_l	scapula_winging_l	shoulder_elv_l	plane_of_elev_l	axial_rot_l	elbow_flexion_l	pro_sup_l	wrist_flex_l	wrist_dev_l	
3.8500	-40.439032	-12.334792	9.616736	-214.918487	837.739382	-5.761221	5.055297	-45.000000	34.240004	-45.000000	-20.773088	2411.012367	-650.409544	21.957978	-180.000000	1808.576362	-130.143926	16.395754	12.226518	14.691262	37.844580	-34.476394	-45.000000	-45.000000	-276.562298	-2449.928789	18.178136	-48.077211	730.471518	39.620938	8.816205	-22.815344	
3.8600	-40.449070	-11.975961	9.526110	-216.505603	840.119007	-5.673467	4.928902	-45.000000	34.361837	-45.000000	-20.090879	2410.852164	-650.228753	21.904657	-180.000000	1808.289981	-127.285236	16.614904	12.178600	14.708521	38.067532	-34.541590	-45.000000	-45.000000	-276.222656	-2449.817455	18.109162	-49.049616	730.607702	39.235526	8.772107	-22.819907	
3.8700	-40.438913	-11.690059	9.487292	-217.999632	842.455807	-5.597721	4.871410	-45.000000	34.509386	-45.000000	-19.588464	2410.671271	-650.099140	21.906134	-180.000000	1807.958040	-123.957096	16.852782	12.097708	14.806034	38.138189	-34.532206	-45.000000	-45.000000	-275.962727	-2449.702400	18.017331	-49.814363	730.675563	38.829015	8.684755	-22.767574	
3.8800	-40.436044	-11.380752	9.414780	-219.291340	844.704437	-5.551050	4.810881	-45.000000	34.638113	-45.000000	-19.065613	2410.523383	-649.992845	21.918332	-180.000000	1807.623893	-120.237005	17.133885	12.013858	14.832167	38.212591	-34.550059	-45.000000	-45.000000	-275.734821	-2449.590033	17.948305	-50.343905	730.741106	38.507820	8.662166	-22.769897	
3.8900	-40.428035	-11.101095	9.356235	-220.367738	846.854540	-5.530055	4.759482	-45.000000	34.756853	-45.000000	-18.589575	2410.389616	-649.932339	21.955136	-180.000000	1807.186394	-115.005603	17.513791	11.829743	14.849324	38.240072	-34.554400	-45.000000	-45.000000	-275.555140	-2449.477176	17.885424	-50.687369	730.772183	38.186870	8.668616	-22.780721	
3.9000	-40.416126	-10.845672	9.303989	-221.201863	848.890813	-5.532664	4.720150	-45.000000	34.881983	-45.000000	-18.116272	2410.258999	-649.907871	22.010890	-180.000000	1806.687489	-108.708895	17.967669	11.576673	14.859135	38.228050	-34.554841	-45.000000	-45.000000	-275.418176	-2449.373181	17.837529	-50.842824	730.769146	37.881793	8.692869	-22.791914	
3.9100	-40.401438	-10.611014	9.259575	-221.793241	850.808589	-5.550771	4.681733	-45.000000	35.004679	-45.000000	-17.644650	2410.139398	-649.906815	22.071817	-180.000000	1806.152505	-101.712861	18.473971	11.267675	14.868720	38.201946	-34.563096	-45.000000	-45.000000	-275.309734	-2449.277520	17.805207	-50.890831	730.747562	37.589118	8.723355	-22.799111	
3.9200	-40.387134	-10.381298	9.207529	-222.153764	852.609508	-5.573800	4.658398	-45.000000	35.133718	-45.000000	-17.172247	2410.029442	-649.910837	22.130795	-180.000000	1805.692168	-95.497170	18.944782	11.001977	14.885610	38.164888	-34.593459	-45.000000	-45.000000	-275.220033	-2449.196498	17.793934	-50.863107	730.720422	37.353323	8.738719	-22.794706	
3.9300	-40.377679	-10.159693	9.155556	-222.295896	854.297335	-5.591749	4.622652	-45.000000	35.239590	-45.000000	-16.716584	2409.956614	-649.901579	22.174556	-180.000000	1805.316237	-90.196192	19.363630	10.777094	14.902355	38.149274	-34.653496	-45.000000	-45.000000	-275.133103	-2449.116382	17.798135	-50.830327	730.711357	37.174563	8.745130	-22.793213	
3.9400	-40.375755	-9.941609	9.093750	-222.232796	855.877688	-5.595929	4.591437	-45.000000	35.339603	-45.000000	-16.288299	2409.915789	-649.868389	22.204076	-180.000000	1805.104222	-86.866553	19.667060	10.671664	14.915715	38.143832	-34.740575	-45.000000	-45.000000	-275.052228	-2449.040573	17.821522	-50.762045	730.720436	37.096270	8.731684	-22.791603	
3.9500	-40.379274	-9.742076	9.038346	-221.978286	857.357793	-5.579446	4.563085	-45.000000	35.421281	-45.000000	-15.922268	2409.917284	-649.812635	22.221938	-180.000000	1805.021659	-85.112716	19.871267	10.652037	14.926300	38.140586	-34.842404	-45.000000	-45.000000	-274.980848	-2448.956980	17.852643	-50.680931	730.753701	37.101746	8.701777	-22.795317	
3.9600	-40.386079	-9.571079	8.988409	-221.546523	858.746782	-5.537850	4.546343	-45.000000	35.510166	-45.000000	-15.596808	2409.945009	-649.740633	22.231005	-180.000000	1805.035528	-84.613765	19.999108	10.700387	14.923264	38.134480	-34.935962	-45.000000	-45.000000	-274.923157	-2448.863389	17.897288	-50.581631	730.805679	37.182905	8.654518	-22.801915	
3.9700	-40.391459	-9.450725	8.964298	-220.951978	860.055808	-5.469336	4.540301	-45.000000	35.611752	-45.000000	-15.299828	2409.988957	-649.661903	22.237664	-180.000000	1805.047791	-84.109232	20.118841	10.725731	14.900431	38.114753	-34.999036	-45.000000	-45.000000	-274.888569	-2448.746417	17.944632	-50.470186	730.871052	37.294610	8.596227	-22.811673	
3.9800	-40.395323	-9.371011	8.951631	-220.208926	861.297567	-5.375017	4.550800	-45.000000	35.761774	-45.000000	-14.979118	2410.023947	-649.578738	22.238795	-180.000000	1805.055949	-83.616402	20.240679	10.740842	14.850175	38.092428	-35.030567	-45.000000	-44.999999	-274.876447	-2448.616801	18.006567	-50.319874	730.941083	37.454045	8.525189	-22.821157	
3.9900	-40.398951	-9.310604	8.942288	-219.331722	862.486048	-5.258415	4.586708	-45.000000	35.953611	-45.000000	-14.616656	2410.041021	-649.497485	22.237658	-180.000000	1805.057669	-83.140215	20.364261	10.748069	14.773467	38.059281	-35.060492	-45.000000	-44.999999	-274.882094	-2448.478861	18.072638	-50.125839	731.021778	37.677375	8.443235	-22.835412	
4.0000	-40.404333	-9.257766	8.926111	-218.334616	863.636097	-5.124904	4.624879	-45.000000	36.174356	-45.000000	-14.209779	2410.048795	-649.418694	22.231700	-180.000000	1805.046063	-82.675268	20.493986	10.752664	14.692460	38.032101	-35.101272	-45.000000	-44.999998	-274.894180	-2448.342497	18.148052	-49.894038	731.110093	37.978307	8.348496	-22.852798	
4.0100	-40.412586	-9.199880	8.899555	-217.232462	864.762849	-4.980586	4.659744	-45.000000	36.403349	-45.000000	-13.754515	2410.050777	-649.343180	22.227708	-180.000000	1805.025323	-82.207087	20.622970	10.755751	14.615722	38.003138	-35.176402	-45.000000	-44.999996	-274.901728	-2448.213260	18.224728	-49.631651	731.211416	38.366447	8.241904	-22.875965	
4.0200	-40.430538	-9.120426	8.851788	-216.040160	865.881256	-4.831661	4.667046	-45.000000	36.626866	-45.000000	-13.243894	2410.049365	-649.277523	22.226103	-180.000000	1805.000389	-81.711659	20.754026	10.760953	14.577214	37.991861	-35.312072	-45.000000	-44.999993	-274.878882	-2448.107858	18.309324	-49.350426	731.331451	38.851336	8.122040	-22.904756	
4.0300	-40.455780	-9.006953	8.777127	-214.772778	867.005834	-4.683785	4.645375	-45.000000	36.829840	-45.000000	-12.681781	2410.059095	-649.217702	22.226707	-180.000000	1804.972435	-81.170403	20.887278	10.769312	14.570894	37.988301	-35.510768	-45.000000	-44.999987	-274.833013	-2448.019501	18.395800	-49.053602	731.470361	39.433411	7.988703	-22.939612	
4.0400	-40.487817	-8.858701	8.671757	-213.443942	868.150854	-4.541836	4.594010	-45.000000	37.019970	-45.000000	-12.047596	2410.062095	-649.168767	22.241909	-180.000000	1804.948019	-80.563329	21.021236	10.779745	14.616850	38.007650	-35.765305	-45.000000	-44.999977	-274.747728	-2447.955380	18.503548	-48.748078	731.630348	40.115903	7.844628	-22.980539	
4.0500	-40.517963	-8.678820	8.537648	-212.065336	869.329731	-4.409664	4.522565	-45.000000	37.207920	-45.000000	-11.350934	2410.056922	-649.126150	22.280088	-180.000000	1804.926814	-79.877548	21.158440	10.788852	14.696975	38.036510	-36.050117	-45.000000	-44.999959	-274.641077	-2447.902758	18.636657	-48.431729	731.796773	40.896132	7.694059	-23.024631	
4.0600	-40.545732	-8.470356	8.378106	-210.644872	870.555192	-4.290003	4.442613	-45.000000	37.410732	-45.000000	-10.573275	2410.025130	-649.091251	22.343015	-180.000000	1804.909291	-79.107363	21.298638	10.793392	14.814283	38.082320	-36.363653	-45.000000	-44.999926	-274.503530	-2447.865833	18.800903	-48.105432	731.967303	41.767861	7.538689	-23.069914	
4.0700	-40.560737	-8.254780	8.211353	-209.186647	871.838669	-4.184316	4.347337	-45.000000	37.632670	-45.000000	-9.738944	2409.995874	-649.037578	22.411589	-180.000000	1804.886474	-78.262343	21.440694	10.792324	14.943198	38.133606	-36.668380	-45.000000	-44.999868	-274.367505	-2447.820664	18.981574	-47.756605	732.122077	42.710437	7.372911	-23.106879	
4.0800	-40.567248	-8.033973	8.038490	-207.690359	873.190458	-4.092634	4.256651	-45.000000	37.874406	-45.000000	-8.851458	2409.960995	-648.973360	22.488665	-180.000000	1804.852247	-77.370902	21.586950	10.782872	15.068695	38.186245	-36.969239	-45.000000	-44.999764	-274.224700	-2447.765512	19.174039	-47.378474	732.270818	43.692594	7.201464	-23.138450	
4.0900	-40.561809	-7.821929	7.869840	-206.152555	874.618908	-4.013626	4.158468	-45.000000	38.128401	-45.000000	-7.934671	2409.948375	-648.884403	22.561686	-180.000000	1804.803559	-76.469322	21.737238	10.767893	15.178233	38.231824	-37.247111	-45.000000	-44.999577	-274.093084	-2447.687154	19.365953	-46.962627	732.405364	44.679023	7.022303	-23.159617	
4.1000	-40.553564	-7.613151	7.705401	-204.567273	876.130271	-3.944848	4.063651	-45.000000	38.387639	-45.000000	-6.995947	2409.955240	-648.781038	22.627034	-180.000000	1804.738626	-75.602562	21.893097	10.748761	15.261354	38.265917	-37.521657	-45.000000	-44.999243	-273.960980	-2447.587232	19.549335	-46.499289	732.540257	45.631845	6.839428	-23.174665	
4.1100	-40.540545	-7.411826	7.549947	-202.927681	877.727651	-3.883313	3.957417	-45.000000	38.649754	-45.000000	-6.034399	2409.997627	-648.647908	22.673817	-180.000000	1804.661526	-74.806155	22.047940	10.732321	15.325041	38.292738	-37.781645	-45.000000	-44.998644	-273.842150	-2447.461623	19.722934	-45.986867	732.662832	46.525676	6.652609	-23.179066	
4.1200	-40.529757	-7.202035	7.394286	-201.226704	879.410513	-3.826064	3.858615	-45.000000	38.914124	-45.000000	-5.044990	2410.050235	-648.505030	22.718257	-180.000000	1804.573555	-74.113911	22.203898	10.718773	15.366468	38.309299	-38.048428	-45.000000	-44.997571	-273.719570	-2447.319325	19.897412	-45.423715	732.784419	47.339914	6.471687	-23.179510	
